                
                      Madagascar.3.Europes.Most.Wanted.2012.BRRiP.XviD.AC-3.avi



Format                                   : AVI
Format/Info                              : Audio Video Interleave
File size                                : 695 MiB
Duration                                 : 1h 33mn
Overall bit rate                         : 1 040 Kbps

Video
ID                                       : 0
Format                                   : MPEG-4 Visual
Format profile                           : Advanced Simple@L5
Format settings, BVOP                    : 4
Format settings, QPel                    : Yes
Format settings, GMC                     : No warppoints
Format settings, Matrix                  : Default (H.263)
Codec ID                                 : XVID
Codec ID/Hint                            : XviD
Duration                                 : 1h 33mn
Bit rate                                 : 904 Kbps
Width                                    : 544 pixels
Height                                   : 304 pixels
Display aspect ratio                     : 16:9
Frame rate                               : 23.976 fps
Color space                              : YUV
Chroma subsampling                       : 4:2:0
Bit depth                                : 8 bits
Scan type                                : Progressive
Compression mode                         : Lossy
Bits/(Pixel*Frame)                       : 0.228
Stream size                              : 604 MiB (87%)
Writing library                          : XviD 1.2.1 (UTC 2008-12-04)

Audio
ID                                       : 1
Format                                   : AC-3
Format/Info                              : Audio Coding 3
Mode extension                           : CM (complete main)
Format settings, Endianness              : Big
Codec ID                                 : 2000
Duration                                 : 1h 33mn
Bit rate mode                            : Constant
Bit rate                                 : 128 Kbps
Channel(s)                               : 2 channels
Channel positions                        : Front: L R
Sampling rate                            : 48.0 KHz
Bit depth                                : 16 bits
Compression mode                         : Lossy
Stream size                              : 85.5 MiB (12%)
Alignment                                : Aligned on interleaves
Interleave, duration                     : 64 ms (1.53 video frames)
Interleave, preload duration             : 192 ms


